{"title":"Paul.2011.DVDRIP.XVID.AC3.B-BRG.TheO","uid":6589519,"size":1465922873,"categoryP":"video","categoryS":"movies","magnet":"?xt=urn:btih:8bb590fd10b8e2687f39afe8562ce9785677570f&amp;dn=Paul.2011.DVDRIP.XVID.AC3.B-BRG.TheO&amp;tr=udp%3A%2F%2Ftracker.openbittorrent.com%3A80&amp;tr=udp%3A%2F%2Fopen.demonii.com%3A1337&amp;tr=udp%3A%2F%2Ftracker.coppersurfer.tk%3A6969&amp;tr=udp%3A%2F%2Fexodus.desync.com%3A6969","seeders":1,"leechers":0,"uploader":"TvTeam","files":5,"time":1312762514,"description":". \n  &lt;a href=&quot;\nhttp://www.torrenting.com/&quot; rel=&quot;nofollow&quot; target=&quot;_NEW&quot;&gt;\nhttp://www.torrenting.com/&lt;/a&gt;        :     Greatest Movie Tracker on The Net!!!\n &lt;a href=&quot;\nhttp://www.Torrenting.com&quot; rel=&quot;nofollow&quot; target=&quot;_NEW&quot;&gt;\nhttp://www.Torrenting.com&lt;/a&gt;          :     Once &amp; For all ;)\n\n\n               www . Torrenting . Com \n\n(((((((((((((= Enjoy No RAR releases =))))))))))))))))))))\n\n\n...................................NFO:....................................\n\n.     \n  \n   \n   \n                            blues-brothers rg  presents                \n     \n       \n               Paul.2011.DVDRIP.XVID.AC3.B-BRG.TheO\n             \n     \n  \n   \n   \n                                encode info                            \n     \n\t    \n\t\tFormat                           : AVI\nFormat/Info                      : Audio Video Interleave\nFile size                        : 1.37 GiB\nDuration                         : 1h 39mn\nOverall bit rate                 : 1 966 Kbps\n\nVideo\nID                               : 0\nFormat                           : MPEG-4 Visual\nFormat profile                   : Advanced Simple@L5\nFormat settings, BVOP            : 2\nFormat settings, QPel            : No\nFormat settings, GMC             : No warppoints\nFormat settings, Matrix          : Default (H.263)\nMuxing mode                      : Packed bitstream\nCodec ID                         : XVID\nCodec ID/Hint                    : XviD\nDuration                         : 1h 39mn\nBit rate                         : 1 574 Kbps\nWidth                            : 640 pixels\nHeight                           : 272 pixels\nDisplay aspect ratio             : 2.35:1\nFrame rate                       : 25.000 fps\nColor space                      : YUV\nChroma subsampling               : 4:2:0\nBit depth                        : 8 bits\nScan type                        : Progressive\nCompression mode                 : Lossy\nBits/(Pixel*Frame)               : 0.362\nStream size                      : 1.09 GiB (80%)\nWriting library                  : XviD 1.2.1 (UTC 2008-12-04)\n\nAudio\nID                               : 1\nFormat                           : AC-3\nFormat/Info                      : Audio Coding 3\nMode extension                   : CM (complete main)\nCodec ID                         : 2000\nDuration                         : 1h 39mn\nBit rate mode                    : Constant\nBit rate                         : 384 Kbps\nChannel(s)                       : 6 channels\nChannel positions                : Front: L C R, Side: L R, LFE\nSampling rate                    : 48.0 KHz\nBit depth                        : 16 bits\nCompression mode                 : Lossy\nStream size                      : 273 MiB (20%)\nAlignment                        : Aligned on interleaves\nInterleave, duration             : 64 ms (1.60 video frames)\nInterleave, preload duration     : 192 ms","torrent":{"xt":"urn:btih:8bb590fd10b8e2687f39afe8562ce9785677570f","amp;dn":"Paul.2011.DVDRIP.XVID.AC3.B-BRG.TheO","amp;tr":["udp%3A%2F%2Ftracker.openbittorrent.com%3A80","udp%3A%2F%2Fopen.demonii.com%3A1337","udp%3A%2F%2Ftracker.coppersurfer.tk%3A6969","udp%3A%2F%2Fexodus.desync.com%3A6969"],"infoHash":"8bb590fd10b8e2687f39afe8562ce9785677570f","infoHashBuffer":{"type":"Buffer","data":[139,181,144,253,16,184,226,104,127,57,175,232,86,44,233,120,86,119,87,15]},"announce":[],"urlList":[]}}